<?xml version="1.0" encoding="utf-8"?>
<!-- Generator: Adobe Illustrator 16.0.0, SVG Export Plug-In . SVG Version: 6.00 Build 0)  -->
<!DOCTYPE svg PUBLIC "-//W3C//DTD SVG 1.1//EN" "http://www.w3.org/Graphics/SVG/1.1/DTD/svg11.dtd">
<svg version="1.1" id="Capa_1" xmlns="http://www.w3.org/2000/svg" xmlns:xlink="http://www.w3.org/1999/xlink" x="0px" y="0px"
	 width="512px" height="494.93px" viewBox="0 8.534 512 494.93" enable-background="new 0 8.534 512 494.93" xml:space="preserve">
<path fill="#FFFFFF" d="M435.033,171.093c-0.006,0-0.012,0-0.018,0H7.33c-4.044-0.004-7.326,3.27-7.33,7.313
	c0,0.005,0,0.012,0,0.018v205.289c-0.005,4.044,3.27,7.326,7.313,7.33c0.005,0,0.012,0,0.017,0h290.827
	c4.048,0,7.33-3.282,7.33-7.33s-3.282-7.33-7.33-7.33H14.661V185.754h413.024v18.331c-0.004,4.043,3.27,7.326,7.313,7.33
	c0.005,0,0.012,0,0.017,0c4.044,0.004,7.326-3.27,7.331-7.313c0-0.005,0-0.012,0-0.017v-25.661
	C442.351,174.38,439.077,171.098,435.033,171.093z M385.302,137.057L43.154,60.074c-1.899-0.425-3.889-0.08-5.534,0.958
	c-1.644,1.047-2.806,2.701-3.233,4.602l-17.107,76.983c-0.879,3.954,1.614,7.872,5.568,8.751s7.872-1.614,8.751-5.568l15.508-69.808
	l334.98,75.367c0.53,0.123,1.072,0.184,1.616,0.18c4.049-0.008,7.324-3.295,7.318-7.344
	C391.014,140.773,388.64,137.811,385.302,137.057z M343.757,94.639L138.468,9.102c-3.568-1.487-7.68,0.041-9.409,3.498
	l-17.107,34.215c-1.933,3.574-0.603,8.038,2.972,9.97c3.573,1.932,8.038,0.602,9.97-2.973c0.076-0.14,0.147-0.283,0.214-0.429v0.018
	l14.037-28.091l198.95,82.895c3.747,1.563,8.052-0.205,9.614-3.952C349.272,100.509,347.503,96.204,343.757,94.639z
	 M348.941,205.307h-67.892c-4.048,0-7.33,3.282-7.33,7.331c0,4.048,3.282,7.33,7.33,7.33h67.892c4.048,0,7.33-3.282,7.33-7.33
	C356.271,208.59,352.989,205.307,348.941,205.307z M212.619,205.795c-41.571,0-75.272,33.701-75.272,75.273
	c0.043,41.554,33.719,75.229,75.272,75.272c41.572,0,75.273-33.7,75.273-75.272S254.192,205.795,212.619,205.795z M212.619,342.655
	c-34.014,0-61.586-27.573-61.586-61.587c0.037-33.998,27.589-61.55,61.586-61.587c34.015,0,61.587,27.572,61.587,61.587
	C274.206,315.082,246.634,342.655,212.619,342.655z M417.908,229.746c-45.334,0-94.09,10.709-94.09,34.215V469.25
	c0,23.506,48.756,34.215,94.09,34.215c45.335,0,94.092-10.709,94.092-34.215V263.961C512,240.455,463.243,229.746,417.908,229.746z
	 M494.893,469.122c-1.292,4.747-26.944,17.235-76.984,17.235c-50.039,0-75.691-12.488-76.982-17.107v-13.446
	c18.202,9.17,48.269,13.446,76.982,13.446c28.715,0,58.79-4.319,76.984-13.455V469.122z M494.893,434.907
	c-1.292,4.747-26.944,17.235-76.984,17.235c-50.039,0-75.691-12.488-76.982-17.107v-13.446
	c18.202,9.169,48.269,13.446,76.982,13.446c28.715,0,58.79-4.319,76.984-13.455V434.907z M494.893,400.692
	c-1.292,4.747-26.944,17.235-76.984,17.235c-50.039,0-75.691-12.488-76.982-17.107v-13.446
	c18.202,9.169,48.269,13.446,76.982,13.446c28.715,0,58.79-4.319,76.984-13.455V400.692z M494.893,366.477
	c-1.292,4.747-26.944,17.235-76.984,17.235c-50.039,0-75.691-12.488-76.982-17.107v-13.446
	c18.202,9.169,48.269,13.446,76.982,13.446c28.715,0,58.79-4.319,76.984-13.455V366.477z M494.893,332.262
	c-1.292,4.747-26.944,17.235-76.984,17.235c-50.039,0-75.691-12.488-76.982-17.107v-13.446
	c18.202,9.127,48.269,13.446,76.982,13.446c28.715,0,58.79-4.319,76.984-13.455V332.262z M494.893,298.047
	c-1.292,4.748-26.944,17.236-76.984,17.236c-50.039,0-75.691-12.488-76.982-17.107v-13.447
	c18.202,9.127,48.269,13.447,76.982,13.447c28.715,0,58.79-4.32,76.984-13.455V298.047z M417.908,281.068
	c-49.962,0-75.605-12.454-76.982-16.954v-0.051c1.377-4.765,27.021-17.21,76.982-17.21c49.612,0,75.273,12.266,76.984,17.107
	C493.182,268.802,467.521,281.068,417.908,281.068z M144.19,342.159H79.532l-30.656-33.531v-55.599l33.855-33.061h61.458
	c4.049,0,7.331-3.282,7.331-7.33c0-4.049-3.282-7.331-7.331-7.331H79.755c-1.916-0.004-3.759,0.742-5.133,2.079l-38.209,37.269
	c-1.428,1.668-2.21,3.792-2.207,5.987v60.834c0,1.829,0.684,3.593,1.916,4.944l34.754,38.013c1.389,1.521,3.354,2.388,5.414,2.387
	h67.899c4.049,0,7.331-3.283,7.331-7.331S148.24,342.159,144.19,342.159z"/>
<g>
	<g>
		<path fill="#FFFFFF" d="M216.897,272.514h-8.554c-2.66,0-4.277-1.488-4.277-2.139s1.617-2.139,4.277-2.139h21.384
			c4.725,0,8.554-3.83,8.554-8.554s-3.829-8.554-8.554-8.554h-8.554c0-4.724-3.829-8.554-8.554-8.554
			c-4.724,0-8.554,3.83-8.554,8.554v0.385c-9.486,1.34-16.674,9.247-17.107,18.818c0.613,11.215,10.165,19.832,21.385,19.289h8.554
			c2.66,0,4.276,1.488,4.276,2.138c0,0.65-1.616,2.139-4.276,2.139h-21.385c-4.724,0-8.554,3.83-8.554,8.554
			c0,4.725,3.83,8.554,8.554,8.554h8.554c0,4.725,3.83,8.554,8.554,8.554c4.725,0,8.554-3.829,8.554-8.554v-0.385
			c9.487-1.34,16.675-9.246,17.107-18.818C237.668,280.588,228.115,271.97,216.897,272.514z"/>
	</g>
</g>
</svg>
