<?xml version="1.0" encoding="utf-8"?>
<!-- Generator: Adobe Illustrator 16.0.0, SVG Export Plug-In . SVG Version: 6.00 Build 0)  -->
<!DOCTYPE svg PUBLIC "-//W3C//DTD SVG 1.1//EN" "http://www.w3.org/Graphics/SVG/1.1/DTD/svg11.dtd">
<svg version="1.1" id="Capa_1" xmlns="http://www.w3.org/2000/svg" xmlns:xlink="http://www.w3.org/1999/xlink" x="0px" y="0px"
	 width="512px" height="372.286px" viewBox="0 69.861 512 372.286" enable-background="new 0 69.861 512 372.286"
	 xml:space="preserve">
<g>
	<path fill="#FFFFFF" d="M495.042,142.001L44.138,69.861v38.224l-26.482-2.118v36.043H0v300.138h512V142.01h-16.958V142.001z
		 M61.793,90.562l236.597,37.853L61.793,109.489V90.562z M35.311,125.078l8.827,0.706v0.009l59.648,4.768l143.033,11.44H35.311
		V125.078z M494.345,424.483H17.656V159.656h450.206h26.483V424.483z"/>
	<path fill="#FFFFFF" d="M57.379,230.276c17.037,0,30.896-13.859,30.896-30.896s-13.859-30.896-30.896-30.896
		s-30.896,13.859-30.896,30.896S40.342,230.276,57.379,230.276z M57.379,186.138c7.301,0,13.241,5.941,13.241,13.241
		c0,7.301-5.94,13.241-13.241,13.241c-7.3,0-13.241-5.932-13.241-13.241C44.138,192.071,50.079,186.138,57.379,186.138z"/>
	<path fill="#FFFFFF" d="M423.724,199.38c0,17.037,13.859,30.896,30.896,30.896s30.896-13.859,30.896-30.896
		s-13.859-30.896-30.896-30.896S423.724,182.351,423.724,199.38z M467.862,199.38c0,7.301-5.94,13.241-13.241,13.241
		s-13.241-5.94-13.241-13.241c0-7.3,5.94-13.241,13.241-13.241S467.862,192.08,467.862,199.38z"/>
	<path fill="#FFFFFF" d="M57.379,353.863c-17.037,0-30.896,13.859-30.896,30.896s13.859,30.896,30.896,30.896
		s30.896-13.859,30.896-30.896S74.416,353.863,57.379,353.863z M57.379,398.001c-7.3,0-13.241-5.94-13.241-13.241
		s5.941-13.241,13.241-13.241c7.301,0,13.241,5.94,13.241,13.241S64.68,398.001,57.379,398.001z"/>
	<path fill="#FFFFFF" d="M454.62,353.863c-17.037,0-30.896,13.859-30.896,30.896s13.859,30.896,30.896,30.896
		s30.896-13.859,30.896-30.896S471.657,353.863,454.62,353.863z M454.62,398.001c-7.301,0-13.241-5.94-13.241-13.241
		s5.94-13.241,13.241-13.241s13.241,5.94,13.241,13.241S461.921,398.001,454.62,398.001z"/>
	<path fill="#FFFFFF" d="M278.492,413.51c1.086-0.203,2.181-0.361,3.258-0.591c3.248-0.697,6.471-1.527,9.648-2.489
		c1.465-0.441,2.896-0.954,4.334-1.448c1.872-0.645,3.734-1.315,5.579-2.048c1.589-0.627,3.169-1.271,4.723-1.96
		c1.748-0.785,3.47-1.642,5.191-2.507c2.4-1.209,4.749-2.48,7.062-3.84c0.354-0.203,0.706-0.415,1.06-0.627h96.582l-0.856-9.604
		c-0.088-1.2-0.176-2.401-0.176-3.637c0-21.901,17.822-39.725,39.724-39.725c1.219,0,2.41,0.08,3.602,0.186l9.64,0.883V238.036
		l-9.64,0.883c-1.191,0.105-2.392,0.186-3.602,0.186c-21.901,0-39.724-17.823-39.724-39.725c0-1.227,0.088-2.437,0.185-3.637
		l0.856-9.604h-96.608c-18.547-11.132-40.166-17.655-63.329-17.655c-23.164,0-44.782,6.523-63.329,17.655H96.035l0.883,9.631
		c0.105,1.2,0.186,2.393,0.186,3.61c0,21.901-17.823,39.725-39.725,39.725c-1.218,0-2.419-0.08-3.61-0.186l-9.631-0.883v108.067
		l9.631-0.883c1.191-0.105,2.393-0.186,3.61-0.186c21.901,0,39.725,17.823,39.725,39.725c0,1.218-0.08,2.419-0.186,3.61
		l-0.883,9.631h96.424c1.403,0.848,2.815,1.669,4.246,2.454c0.441,0.247,0.9,0.468,1.351,0.706c2.869,1.527,5.782,2.931,8.748,4.22
		c0.68,0.291,1.351,0.592,2.03,0.874c3.363,1.395,6.771,2.666,10.249,3.761c0.088,0.026,0.177,0.062,0.265,0.088
		c3.593,1.112,7.247,2.039,10.938,2.816c0.865,0.186,1.748,0.326,2.622,0.485c2.851,0.538,5.72,0.979,8.615,1.315
		c1.051,0.123,2.092,0.256,3.151,0.353c3.752,0.345,7.521,0.574,11.326,0.574c3.725,0,7.424-0.229,11.113-0.565
		c1.148-0.105,2.287-0.238,3.426-0.37C273.205,414.411,275.853,413.997,278.492,413.51z M231.557,395.044
		c-0.557-0.133-1.112-0.291-1.669-0.433c-2.878-0.715-5.711-1.58-8.519-2.542c-1.298-0.45-2.587-0.919-3.866-1.413
		c-2.021-0.776-3.99-1.659-5.959-2.56c-0.962-0.45-1.915-0.909-2.869-1.386l23.411-11.529c5.067-2.498,8.219-7.565,8.219-13.215
		v-14.609l-5.332-2.295c-11.317-4.873-18.68-14.213-22.511-28.558L211.2,311.8l-4.652-1.448c-2.79-0.865-4.661-3.354-4.661-6.188
		v-7.688c0-2.824,1.836-4.811,3.549-5.72l4.148-2.207l0.486-4.67c0.732-7.098,2.321-13.639,4.695-19.438
		c1.016-2.48,1.881-4.334,2.578-5.835c2.349-5.05,3.398-8.042,3.16-12.889c8.854,4.556,19.279,6.488,30.49,5.597
		c1.157-0.097,2.349-0.141,3.549-0.141c28.072,0,41.772,10.116,44.438,32.794l0.538,4.608l4.105,2.172
		c1.729,0.918,3.575,2.904,3.575,5.737v7.689c0,2.833-1.872,5.323-4.661,6.188l-4.652,1.448l-1.263,4.705
		c-3.831,14.345-11.193,23.693-22.51,28.558l-5.332,2.295v14.671c0,5.553,3.072,10.576,8.033,13.127l24.514,12.526
		c-0.326,0.159-0.645,0.317-0.979,0.468c-3.055,1.412-6.162,2.684-9.331,3.787c-0.379,0.133-0.75,0.282-1.13,0.415
		C271.139,398.628,250.712,399.475,231.557,395.044z M342.396,203.794h55.013c2.154,28.134,24.665,50.644,52.798,52.798v70.956
		c-28.133,2.154-50.644,24.664-52.798,52.798h-55.013c0.132-0.132,0.247-0.273,0.379-0.406c1.51-1.491,2.904-3.089,4.335-4.66
		c1.377-1.501,2.807-2.949,4.096-4.512c0.494-0.6,0.927-1.253,1.412-1.862c14.478-18.097,23.649-39.927,26.192-63.373
		c0.035-0.292,0.097-0.574,0.132-0.865c0.424-4.149,0.645-8.352,0.645-12.598s-0.221-8.447-0.636-12.605
		c-0.026-0.291-0.097-0.573-0.132-0.865c-2.543-23.437-11.724-45.276-26.191-63.373c-0.486-0.609-0.919-1.263-1.413-1.862
		c-1.298-1.554-2.719-3.011-4.096-4.511c-1.43-1.563-2.825-3.17-4.334-4.661C342.643,204.076,342.528,203.927,342.396,203.794z
		 M312.603,202.69c7.291,4.626,13.851,10.046,19.677,16.066c0.794,0.821,1.535,1.686,2.304,2.533
		c1.897,2.093,3.689,4.264,5.411,6.488c0.892,1.165,1.792,2.331,2.64,3.531c1.606,2.277,3.081,4.644,4.502,7.035
		c0.627,1.051,1.315,2.058,1.906,3.134c1.811,3.319,3.426,6.754,4.864,10.258c0.548,1.324,0.989,2.692,1.483,4.034
		c0.9,2.472,1.739,4.961,2.463,7.504c0.415,1.456,0.785,2.922,1.13,4.396c0.636,2.684,1.147,5.403,1.571,8.14
		c0.203,1.298,0.441,2.586,0.601,3.901c0.468,4.078,0.776,8.192,0.776,12.358c0,4.167-0.309,8.28-0.785,12.351
		c-0.15,1.314-0.397,2.595-0.601,3.901c-0.424,2.746-0.936,5.465-1.571,8.14c-0.354,1.474-0.724,2.948-1.13,4.396
		c-0.715,2.543-1.554,5.032-2.463,7.504c-0.494,1.351-0.936,2.719-1.483,4.034c-1.447,3.505-3.054,6.938-4.864,10.258
		c-0.591,1.077-1.279,2.083-1.906,3.134c-1.421,2.392-2.896,4.758-4.502,7.035c-0.848,1.201-1.748,2.366-2.64,3.531
		c-1.713,2.225-3.514,4.396-5.411,6.488c-0.769,0.848-1.51,1.713-2.304,2.533c-4.176,4.317-8.846,8.21-13.789,11.829
		c-1.501-1.095-3.028-2.163-4.696-3.001l-27.365-13.975v-1.606c12.35-6.938,21.08-18.149,26.032-33.43
		c7.574-4.211,12.394-12.156,12.394-21.046v-7.688c0-7.327-3.336-14.133-8.942-18.679c-3.689-21.107-17.699-44.297-61.369-44.297
		c-1.703,0-3.372,0.062-4.979,0.194c-6.462,0.512-15.907-0.027-24.046-5.509c-3.046-2.048-5.332-4.025-6.78-5.87
		c-2.913-3.699-7.768-4.979-12.12-3.188c-4.325,1.783-6.868,6.118-6.329,10.762c0.335,2.904,0.82,6.285,1.554,9.983
		c1.421,7.133,1.421,7.133-0.513,11.273c-0.785,1.694-1.765,3.795-2.913,6.594c-2.533,6.188-4.352,12.959-5.402,20.171
		c-5.517,4.546-8.792,11.309-8.792,18.564v7.688c0,8.89,4.82,16.844,12.394,21.046c4.953,15.28,13.684,26.491,26.033,33.43v1.51
		l-28.372,13.982c-0.9,0.495-1.748,1.166-2.613,1.766c-4.255-3.257-8.298-6.727-11.961-10.514c-0.795-0.82-1.536-1.686-2.304-2.533
		c-1.898-2.092-3.69-4.264-5.412-6.488c-0.892-1.165-1.792-2.33-2.639-3.531c-1.607-2.277-3.081-4.644-4.503-7.035
		c-0.626-1.051-1.314-2.058-1.906-3.134c-1.81-3.319-3.425-6.753-4.864-10.258c-0.547-1.324-0.988-2.692-1.482-4.034
		c-0.9-2.472-1.739-4.961-2.463-7.504c-0.415-1.456-0.786-2.922-1.131-4.396c-0.635-2.684-1.147-5.403-1.571-8.14
		c-0.202-1.298-0.44-2.587-0.6-3.901c-0.441-4.062-0.751-8.166-0.751-12.342c0-4.175,0.31-8.28,0.786-12.35
		c0.15-1.315,0.397-2.595,0.601-3.901c0.423-2.745,0.936-5.465,1.571-8.14c0.353-1.474,0.724-2.948,1.13-4.396
		c0.715-2.543,1.554-5.032,2.463-7.504c0.494-1.351,0.936-2.719,1.482-4.034c1.448-3.504,3.055-6.938,4.864-10.258
		c0.592-1.076,1.28-2.083,1.907-3.134c1.421-2.392,2.895-4.758,4.502-7.035c0.847-1.2,1.747-2.366,2.639-3.531
		c1.713-2.225,3.514-4.396,5.412-6.488c0.768-0.848,1.509-1.712,2.304-2.533c5.826-6.021,12.385-11.44,19.677-16.066
		c16.393-10.426,35.778-16.552,56.603-16.552S296.209,192.264,312.603,202.69z M114.591,380.345
		c-2.154-28.125-24.664-50.644-52.798-52.798v-70.956c28.134-2.154,50.644-24.664,52.798-52.798h55.014
		c-0.133,0.133-0.247,0.273-0.38,0.406c-1.51,1.491-2.904,3.09-4.334,4.661c-1.378,1.5-2.808,2.948-4.097,4.511
		c-0.494,0.6-0.927,1.253-1.412,1.862c-14.478,18.097-23.649,39.928-26.191,63.373c-0.035,0.292-0.097,0.574-0.133,0.865
		c-0.424,4.149-0.645,8.36-0.645,12.597c0,4.237,0.221,8.448,0.636,12.606c0.026,0.291,0.098,0.573,0.133,0.865
		c2.542,23.438,11.723,45.276,26.191,63.373c0.485,0.609,0.918,1.263,1.412,1.862c1.298,1.554,2.719,3.011,4.097,4.512
		c1.43,1.563,2.824,3.169,4.334,4.66c0.133,0.133,0.247,0.274,0.38,0.406h-55.005V380.345z"/>
</g>
</svg>
