<?xml version="1.0" encoding="utf-8"?>
<!-- Generator: Adobe Illustrator 16.0.0, SVG Export Plug-In . SVG Version: 6.00 Build 0)  -->
<!DOCTYPE svg PUBLIC "-//W3C//DTD SVG 1.1//EN" "http://www.w3.org/Graphics/SVG/1.1/DTD/svg11.dtd">
<svg version="1.1" id="Capa_1" xmlns="http://www.w3.org/2000/svg" xmlns:xlink="http://www.w3.org/1999/xlink" x="0px" y="0px"
	 width="574.717px" height="595.281px" viewBox="133.587 0 574.717 595.281" enable-background="new 133.587 0 574.717 595.281"
	 xml:space="preserve">
<path fill="#FFFFFF" d="M699.567,542.207L557.889,394.854c36.428-43.304,56.387-97.789,56.387-154.51
	C614.276,107.82,506.455,0,373.932,0C241.407,0,133.587,107.82,133.587,240.344c0,132.523,107.82,240.344,240.345,240.344
	c49.751,0,97.161-15.006,137.695-43.491l142.754,148.47c5.967,6.196,13.992,9.614,22.593,9.614c8.141,0,15.862-3.104,21.725-8.747
	C711.155,574.549,711.552,554.673,699.567,542.207z M373.931,62.699c97.956,0,177.646,79.689,177.646,177.646
	S471.887,417.99,373.932,417.99c-97.956,0-177.646-79.689-177.646-177.646S275.976,62.699,373.931,62.699z"/>
</svg>
